<svg width="15" height="15" viewBox="0 0 15 15" fill="none" xmlns="http://www.w3.org/2000/svg">
<path d="M15 7.49989C15 11.6264 11.6495 14.9853 7.52652 15H7.50011C3.36492 15 0 11.6353 0 7.49989C0 3.36469 3.36492 0 7.50011 0H7.52652C11.6495 0.014694 15 3.37364 15 7.49989Z" fill="#1B1464"/>
<path d="M10.9042 6.41996L7.52647 9.79819L6.7966 10.5281C6.62417 10.7005 6.39802 10.7866 6.1721 10.7866C5.94596 10.7866 5.72004 10.7005 5.54738 10.5281L3.97812 8.95811C3.63327 8.61326 3.63327 8.05466 3.97812 7.70958C4.32251 7.36473 4.88179 7.36473 5.22664 7.70958L6.1721 8.65504L9.65571 5.17144C10.0006 4.82636 10.5598 4.82636 10.9042 5.17144C11.2491 5.51628 11.2491 6.07557 10.9042 6.41996Z" fill="white"/>
</svg>
